<svg width="21" height="21" viewBox="0 0 21 21" fill="none" xmlns="http://www.w3.org/2000/svg">
<path d="M20.6969 4.91051C20.6938 4.83977 20.6876 4.77056 20.6815 4.69982C20.6799 4.6829 20.6799 4.66445 20.6769 4.64753C20.6723 4.60447 20.6661 4.56294 20.6599 4.51988C20.6538 4.47528 20.6492 4.43222 20.643 4.38916C20.6384 4.3584 20.6323 4.32765 20.6261 4.29843C20.6169 4.2446 20.6076 4.18923 20.5969 4.13541C20.5876 4.09235 20.5769 4.05082 20.5676 4.00776C20.5584 3.96624 20.5492 3.92625 20.5399 3.88473C20.5292 3.84167 20.5153 3.80015 20.503 3.75709C20.4922 3.7171 20.4815 3.67865 20.4692 3.63867C20.4553 3.59561 20.4399 3.55254 20.4245 3.50948C20.4122 3.47257 20.3999 3.43566 20.3876 3.39876C20.3676 3.34493 20.3461 3.29264 20.3261 3.24035C20.3153 3.21421 20.3061 3.1896 20.2953 3.16346C20.2707 3.10655 20.2461 3.05119 20.2199 2.99583C20.2107 2.97583 20.2015 2.9543 20.1922 2.93431C20.1676 2.88202 20.1399 2.83127 20.1138 2.78052C20.1014 2.75745 20.0907 2.73438 20.0784 2.71131C20.0476 2.65441 20.0137 2.59751 19.9814 2.54215C19.9722 2.52677 19.9645 2.51139 19.9553 2.49601C19.9199 2.43757 19.883 2.38067 19.8445 2.32376C19.8368 2.31146 19.8291 2.29916 19.8214 2.28685C19.7753 2.21919 19.7276 2.15152 19.6783 2.08539C19.6322 2.02387 19.5845 1.96236 19.5353 1.90238C19.5322 1.89777 19.5291 1.89315 19.5245 1.88854C18.5736 0.736653 17.1382 0.00461369 15.5303 0.0030758V0L15.5257 0.0030758H15.5273C15.0811 0.0030758 14.6472 0.059978 14.2333 0.166093C13.9856 0.229147 13.7441 0.312193 13.5117 0.409081C13.4348 0.441377 13.3579 0.476748 13.2825 0.51212C11.7547 1.24724 10.6469 2.71131 10.4023 4.45222H10.3992C10.2915 5.1981 10.0623 5.90399 9.73608 6.55298H9.74686C8.61139 8.80447 6.27891 10.3501 3.58334 10.3501C2.38017 10.3501 1.25086 10.0425 0.266173 9.50267C0.15078 9.43962 0.01077 9.52267 0.01077 9.65339V10.3501H0V20.6955H10.3515V15.522H10.3623V12.9353C10.3623 11.5066 11.5208 10.3485 12.9502 10.3485H15.538C15.9812 10.3485 16.4104 10.2916 16.8212 10.1855C17.0689 10.1209 17.3105 10.0394 17.5428 9.94251C17.6197 9.91022 17.6967 9.87484 17.772 9.83947C19.3552 9.07668 20.4907 7.53109 20.6769 5.7056C20.6938 5.53182 20.703 5.35496 20.703 5.17657C20.703 5.08737 20.7015 4.99817 20.6969 4.91051Z" fill="white"/>
</svg>
